<?xml version="1.0" encoding="UTF-8" standalone="no"?>
<!DOCTYPE svg PUBLIC "-//W3C//DTD SVG 1.1//EN" "http://www.w3.org/Graphics/SVG/1.1/DTD/svg11.dtd">
<svg xmlns="http://www.w3.org/2000/svg" version="1.1" viewBox="0.00 0.00 906.00 500.00">
<path fill="#f18b1c" d="
  M 138.61 6.76
  C 182.17 6.51 225.39 14.90 265.70 30.98
  A 0.61 0.61 0.0 0 1 266.04 31.78
  L 253.78 62.13
  A 0.54 0.53 -68.4 0 1 253.10 62.43
  C 244.13 59.14 237.32 56.45 228.57 53.78
  Q 192.28 42.69 153.00 40.77
  Q 151.09 40.68 138.81 40.75
  Q 126.53 40.82 124.62 40.94
  Q 85.37 43.32 49.21 54.84
  C 40.49 57.61 33.71 60.38 24.78 63.77
  A 0.54 0.53 67.7 0 1 24.10 63.48
  L 11.48 33.28
  A 0.61 0.61 0.0 0 1 11.82 32.48
  C 51.94 15.92 95.05 7.02 138.61 6.76
  Z"
/>
<path fill="#5b5657" d="
  M 818.20 113.94
  Q 824.71 113.70 828.97 111.76
  Q 830.77 110.94 830.95 108.49
  A 0.87 0.87 0.0 0 0 830.51 107.67
  Q 828.33 106.47 824.78 106.49
  A 0.54 0.54 0.0 0 1 824.30 105.69
  C 826.10 102.43 823.72 100.63 823.79 97.70
  Q 823.86 94.12 824.61 90.88
  C 825.42 87.38 821.89 84.88 819.87 82.52
  A 0.57 0.57 0.0 0 1 820.04 81.64
  Q 826.70 78.17 830.51 84.50
  A 0.51 0.51 0.0 0 0 831.46 84.25
  Q 831.67 78.29 830.56 73.17
  A 3.31 3.28 -75.6 0 0 829.53 71.41
  L 826.45 68.65
  A 0.90 0.90 0.0 0 1 826.95 67.09
  Q 829.94 66.76 833.75 66.81
  C 837.68 66.87 841.54 69.18 841.52 73.50
  Q 841.42 90.17 841.46 109.32
  A 0.93 0.93 0.0 0 0 842.42 110.25
  Q 845.49 110.15 855.44 109.54
  C 861.71 109.15 867.05 115.65 870.11 120.87
  A 2.02 2.00 -61.6 0 1 870.38 121.80
  Q 870.43 123.93 868.49 125.50
  Q 864.15 129.01 859.96 125.82
  A 1.36 1.35 61.2 0 0 859.04 125.55
  C 851.92 126.03 848.58 126.33 843.24 124.74
  A 0.43 0.43 0.0 0 1 843.21 123.93
  L 853.74 120.12
  A 0.42 0.42 0.0 0 0 853.60 119.31
  Q 845.72 119.26 836.48 120.90
  A 0.96 0.82 23.0 0 0 836.29 120.96
  L 834.86 121.72
  A 1.95 1.94 -53.7 0 1 833.57 121.92
  Q 831.08 121.47 830.02 121.58
  C 815.33 123.24 801.11 127.38 786.97 132.47
  Q 782.88 133.94 778.50 133.08
  C 774.95 132.37 768.90 130.86 767.54 127.84
  A 0.88 0.88 0.0 0 1 768.10 126.64
  L 785.07 121.69
  A 0.49 0.49 0.0 0 0 785.25 120.84
  C 781.70 117.85 779.77 116.49 778.97 111.96
  Q 777.48 103.54 775.07 95.08
  A 0.64 0.64 0.0 0 1 775.58 94.27
  Q 786.00 92.47 788.49 101.83
  A 4.41 4.41 0.0 0 1 788.53 103.86
  C 787.09 110.27 785.96 114.57 790.25 120.19
  A 0.42 0.42 0.0 0 0 790.69 120.34
  L 796.70 118.58
  A 0.08 0.08 0.0 0 0 796.73 118.44
  Q 790.53 113.29 790.49 110.52
  C 790.35 100.35 790.67 91.78 788.86 84.86
  Q 787.21 78.55 786.69 72.73
  A 0.85 0.85 0.0 0 1 787.50 71.80
  C 802.70 70.97 799.67 92.05 798.91 101.00
  Q 798.68 103.79 799.00 109.36
  A 5.67 5.58 28.4 0 0 799.78 111.90
  Q 801.18 114.21 801.41 116.41
  A 0.71 0.70 81.3 0 0 802.24 117.03
  L 806.99 116.16
  A 0.38 0.38 0.0 0 0 807.23 115.57
  C 802.10 108.07 799.86 99.91 800.97 90.85
  A 1.22 1.22 0.0 0 1 802.71 89.90
  C 806.66 91.82 809.86 95.09 810.14 99.69
  A 1.77 1.75 55.5 0 1 809.99 100.53
  L 807.03 107.16
  A 4.21 4.16 47.4 0 0 806.92 110.30
  L 807.19 111.07
  A 0.98 0.98 0.0 0 0 808.98 111.20
  Q 815.21 99.74 809.06 89.51
  C 807.85 87.49 807.02 85.70 807.07 83.75
  Q 807.15 81.11 806.99 80.01
  A 1.25 1.23 -82.0 0 0 806.26 79.03
  L 802.42 77.32
  A 0.45 0.45 0.0 0 1 802.30 76.58
  L 807.09 72.17
  A 2.07 2.06 -17.1 0 0 807.73 70.97
  Q 808.78 64.01 805.88 58.01
  A 0.19 0.18 -12.8 0 1 806.05 57.75
  L 813.55 57.75
  A 0.51 0.50 -17.6 0 1 813.96 57.96
  Q 816.31 61.28 817.08 65.17
  A 1.75 1.74 4.6 0 0 818.18 66.46
  L 823.59 68.48
  A 1.62 1.62 0.0 0 1 823.92 71.35
  Q 818.77 74.79 816.26 80.76
  A 2.30 2.29 -57.2 0 0 816.81 83.34
  Q 818.53 84.93 819.77 86.43
  C 822.32 89.51 821.76 95.14 820.94 99.23
  Q 820.08 103.55 817.71 113.35
  A 0.49 0.48 5.9 0 0 818.20 113.94
  Z
  M 828.05 94.77
  A 1.32 1.29 -29.8 0 0 827.84 95.51
  Q 827.91 97.76 830.79 98.43
  A 0.50 0.50 0.0 0 0 831.41 97.94
  L 831.41 90.06
  A 0.19 0.19 0.0 0 0 831.06 89.96
  L 828.05 94.77
  Z"
/>
<path fill="#5b5657" d="
  M 519.84 182.01
  A 0.27 0.26 84.2 0 1 519.45 181.69
  C 523.72 170.85 527.73 159.70 529.11 148.36
  Q 531.97 124.83 532.09 122.76
  Q 532.61 113.90 528.98 108.43
  A 2.77 2.77 0.0 0 0 525.30 107.57
  L 512.40 115.02
  A 6.60 6.58 85.3 0 0 509.53 118.41
  L 508.32 121.64
  A 1.08 1.08 0.0 0 0 509.94 122.91
  L 518.17 117.19
  A 1.38 1.38 0.0 0 1 518.86 116.94
  L 522.65 116.68
  A 1.08 1.03 57.9 0 1 523.27 116.84
  Q 529.83 120.98 526.92 128.43
  Q 525.28 132.61 522.96 137.23
  Q 522.62 137.90 522.69 142.23
  Q 522.71 143.44 521.00 145.80
  A 1.85 1.78 8.6 0 1 520.07 146.46
  Q 513.60 148.41 507.75 152.77
  C 505.02 154.81 502.08 154.67 499.79 157.45
  A 1.44 1.42 -70.0 0 1 498.69 157.97
  C 492.85 158.02 488.32 153.91 486.39 148.59
  A 0.63 0.63 0.0 0 0 485.29 148.43
  Q 484.25 149.83 484.09 151.90
  Q 482.83 168.65 480.94 181.19
  C 480.29 185.45 477.38 189.26 472.81 189.02
  Q 469.15 188.83 467.67 184.39
  C 466.67 181.39 468.62 179.20 470.21 176.88
  A 4.30 4.19 70.8 0 0 470.79 175.64
  C 473.47 165.85 477.02 157.44 481.82 147.41
  C 483.09 144.76 482.70 141.89 483.94 139.23
  Q 484.60 137.81 487.19 137.48
  A 1.04 1.03 68.0 0 1 488.14 137.89
  L 489.52 139.80
  A 1.19 1.16 65.8 0 0 490.70 140.26
  C 494.68 139.47 497.51 136.74 497.78 132.47
  C 497.90 130.49 499.16 127.63 498.89 125.27
  A 0.56 0.56 0.0 0 0 498.02 124.88
  Q 490.87 129.73 483.21 132.31
  A 2.75 2.75 0.0 0 1 480.25 131.50
  Q 477.17 127.92 477.05 122.84
  A 3.34 3.34 0.0 0 1 479.13 119.66
  Q 490.46 115.03 499.55 110.34
  C 505.93 107.04 503.72 95.15 501.39 90.02
  Q 499.32 85.46 499.23 83.97
  C 499.02 80.24 500.04 76.18 503.72 74.62
  A 1.79 1.78 36.6 0 1 504.55 74.50
  Q 506.90 74.73 510.21 76.31
  C 518.06 80.04 516.43 87.31 515.16 94.19
  A 1.61 1.61 0.0 0 0 516.74 96.09
  L 524.48 96.09
  A 2.64 2.64 0.0 0 1 526.28 96.80
  L 531.45 101.64
  A 5.28 5.24 78.9 0 0 532.79 102.55
  Q 537.70 104.84 543.58 109.94
  Q 544.93 111.10 547.18 110.82
  A 0.85 0.82 -72.4 0 0 547.70 110.54
  L 549.29 108.76
  A 3.86 3.86 0.0 0 1 553.76 107.82
  C 557.55 109.54 564.24 111.82 562.46 117.34
  Q 562.02 118.72 558.91 122.05
  Q 558.04 122.99 550.46 131.03
  A 0.85 0.85 0.0 0 0 550.77 132.41
  C 553.64 133.52 564.22 136.35 562.16 141.60
  Q 560.56 145.68 556.86 145.89
  A 3.27 3.09 -38.5 0 1 555.92 145.81
  Q 548.94 144.09 544.53 138.99
  A 3.05 3.04 36.6 0 1 544.05 135.77
  L 550.54 121.24
  A 3.88 3.88 0.0 0 0 548.58 116.12
  L 547.86 115.80
  A 2.04 2.03 -71.6 0 0 545.05 117.21
  Q 542.88 126.77 541.34 136.65
  C 540.11 144.57 538.62 149.98 536.20 159.24
  Q 532.40 173.85 519.84 182.01
  Z
  M 515.28 131.34
  Q 510.31 134.20 507.10 135.07
  Q 502.87 136.23 501.10 137.95
  Q 498.15 140.82 496.67 143.62
  A 1.77 1.77 0.0 0 0 496.93 145.64
  L 499.98 148.94
  A 0.60 0.60 0.0 0 0 500.79 149.01
  Q 503.63 146.81 507.63 143.17
  Q 513.11 138.18 515.73 131.74
  A 0.32 0.32 0.0 0 0 515.28 131.34
  Z"
/>
<path fill="#5b5657" d="
  M 493.73 91.52
  C 495.96 96.50 489.90 96.73 486.54 97.23
  C 483.27 97.73 481.48 97.21 479.87 94.59
  A 2.28 2.28 0.0 0 0 479.14 93.86
  Q 473.73 90.43 474.53 83.48
  Q 474.91 80.21 478.51 80.02
  C 485.71 79.63 490.89 85.20 493.73 91.52
  Z"
/>
<path fill="#5b5657" d="
  M 654.91 137.90
  Q 653.60 137.76 651.73 138.49
  Q 645.86 140.77 636.80 144.81
  Q 634.47 145.84 630.62 149.61
  Q 629.19 151.01 625.97 152.10
  A 1.72 1.72 0.0 0 1 624.96 152.13
  Q 622.53 151.46 621.99 151.00
  Q 612.89 143.30 610.30 141.04
  A 1.40 1.40 0.0 0 1 610.60 138.73
  Q 615.64 136.22 619.95 134.74
  Q 638.99 128.23 657.14 124.93
  Q 659.20 124.55 659.72 122.23
  C 662.58 109.56 663.08 98.91 659.00 87.53
  Q 657.48 83.29 657.23 82.54
  A 0.83 0.83 0.0 0 1 657.60 81.56
  C 664.37 77.55 672.65 82.02 677.49 87.56
  Q 679.44 89.80 678.93 91.99
  Q 676.29 103.50 674.29 115.27
  Q 673.96 117.23 674.06 118.99
  A 0.67 0.66 77.3 0 0 674.97 119.57
  Q 690.21 113.46 707.00 113.31
  C 711.03 113.28 713.90 113.00 716.55 115.01
  Q 722.16 119.27 722.05 127.03
  A 1.79 1.79 0.0 0 1 719.86 128.75
  C 717.10 128.13 715.15 127.64 712.72 127.51
  Q 694.06 126.53 676.80 130.55
  Q 674.36 131.12 671.64 132.78
  A 2.10 2.03 86.9 0 0 670.85 133.69
  C 667.90 140.36 663.49 150.95 658.65 158.44
  C 651.16 170.02 638.64 181.78 624.72 183.36
  Q 620.07 183.89 616.62 180.90
  A 1.78 1.77 -37.1 0 1 617.03 177.95
  Q 632.64 170.72 644.59 157.80
  Q 652.23 149.55 655.24 138.38
  A 0.38 0.38 0.0 0 0 654.91 137.90
  Z"
/>
<path fill="#5b5657" d="
  M 552.19 171.58
  A 0.23 0.23 0.0 0 1 552.43 171.23
  Q 558.73 172.72 567.98 174.25
  C 570.30 174.63 570.73 172.98 570.42 171.04
  Q 570.08 168.85 567.96 149.49
  Q 566.76 138.47 566.82 128.95
  Q 566.90 116.43 565.60 95.27
  A 1.31 1.31 0.0 0 0 564.18 94.04
  Q 563.14 94.13 562.03 95.03
  Q 559.36 97.20 551.83 103.83
  Q 550.26 105.21 547.52 104.88
  A 1.64 1.60 -21.3 0 1 546.72 104.54
  C 543.71 102.08 538.22 96.71 543.42 93.36
  A 0.55 0.34 -58.3 0 1 543.54 93.30
  L 549.36 91.00
  A 0.92 0.72 -65.8 0 0 549.59 90.88
  Q 558.54 84.59 558.92 84.32
  Q 563.07 81.40 565.59 81.30
  C 572.10 81.02 577.07 86.34 577.11 92.58
  C 577.14 98.04 576.53 102.83 576.80 108.49
  Q 577.69 127.11 579.07 146.75
  Q 580.17 162.48 583.25 177.76
  C 583.75 180.20 583.38 185.42 580.46 186.69
  C 578.07 187.73 576.99 187.80 574.70 186.26
  Q 565.58 180.10 562.46 178.54
  C 558.78 176.70 554.17 174.63 552.19 171.58
  Z"
/>
<path fill="#00498f" d="
  M 51.22 83.75
  A 0.40 0.40 0.0 0 1 51.62 84.15
  Q 51.62 143.64 51.61 198.72
  C 51.61 206.46 53.37 212.96 58.18 218.84
  Q 68.53 231.50 86.63 228.79
  A 1.31 1.30 -29.6 0 1 87.63 229.06
  C 90.04 231.01 93.08 233.86 95.29 235.33
  Q 104.31 241.30 110.22 243.54
  Q 114.97 245.35 121.02 247.01
  A 0.34 0.34 0.0 0 1 121.15 247.60
  C 107.98 258.81 91.25 264.89 73.87 263.06
  Q 55.66 261.14 41.86 250.11
  Q 22.92 234.96 18.82 211.49
  Q 18.03 206.94 17.96 195.25
  Q 17.85 174.85 17.96 84.08
  A 0.33 0.33 0.0 0 1 18.29 83.75
  L 51.22 83.75
  Z"
/>
<path fill="#00498f" d="
  M 138.77 209.70
  Q 141.95 209.70 146.40 208.41
  C 158.31 204.95 167.00 193.94 167.00 181.50
  Q 167.03 92.35 166.99 84.12
  A 0.36 0.35 90.0 0 1 167.34 83.76
  L 200.14 83.76
  A 0.70 0.70 0.0 0 1 200.84 84.46
  Q 200.75 134.50 200.85 178.51
  Q 200.92 209.94 178.31 229.16
  C 169.46 236.69 158.29 241.61 146.76 243.03
  Q 141.22 243.72 138.76 243.72
  Q 136.29 243.72 130.75 243.03
  C 119.23 241.60 108.06 236.67 99.22 229.14
  Q 76.62 209.91 76.70 178.48
  Q 76.83 134.47 76.76 84.43
  A 0.70 0.70 0.0 0 1 77.46 83.73
  L 110.26 83.75
  A 0.36 0.35 -90.0 0 1 110.61 84.11
  Q 110.57 92.34 110.55 181.49
  C 110.54 193.93 119.23 204.94 131.14 208.41
  Q 135.58 209.70 138.77 209.70
  Z"
/>
<path fill="#00498f" d="
  M 226.53 83.75
  L 258.96 83.75
  A 0.59 0.58 0.0 0 1 259.55 84.33
  Q 259.60 184.65 259.53 201.24
  C 259.37 233.65 235.56 258.95 203.80 263.02
  C 199.90 263.52 194.70 263.53 190.64 262.99
  Q 171.03 260.36 156.24 247.58
  A 0.54 0.53 57.9 0 1 156.45 246.66
  C 168.76 243.36 179.17 237.41 188.53 228.78
  A 2.09 2.08 -58.8 0 1 190.47 228.30
  C 201.79 231.32 213.73 227.28 220.68 217.34
  Q 225.98 209.78 225.97 199.01
  Q 225.91 136.93 225.96 84.33
  A 0.58 0.57 90.0 0 1 226.53 83.75
  Z"
/>
<path fill="#5b5657" d="
  M 383.13 99.37
  Q 384.47 99.81 386.88 100.31
  C 392.18 101.41 396.22 105.19 398.53 110.18
  A 2.04 1.98 32.0 0 1 398.71 110.91
  L 399.04 115.64
  A 0.96 0.96 0.0 0 0 400.23 116.51
  Q 407.58 114.71 416.02 114.30
  Q 423.05 113.96 428.41 115.52
  C 434.02 117.14 434.91 123.45 433.16 128.44
  C 429.47 139.04 422.31 146.92 413.76 154.33
  A 0.63 0.63 0.0 0 0 414.00 155.41
  Q 419.41 156.90 420.11 161.83
  A 2.65 2.65 0.0 0 1 418.44 164.68
  C 413.07 166.76 407.21 165.01 401.79 165.08
  Q 400.58 165.10 393.02 165.81
  Q 373.49 167.66 355.79 173.18
  A 0.61 0.40 -56.8 0 0 355.63 173.25
  L 350.09 176.56
  A 2.53 2.53 0.0 0 1 348.79 176.92
  C 341.97 176.90 337.39 172.19 333.13 166.81
  Q 326.71 158.69 323.59 149.93
  Q 321.32 143.57 323.35 137.26
  A 1.08 1.08 0.0 0 1 324.90 136.65
  C 329.72 139.33 334.91 143.28 337.59 148.17
  A 3.17 3.06 29.5 0 1 337.96 149.42
  Q 338.47 156.09 343.54 163.69
  A 1.34 1.33 67.7 0 0 344.89 164.26
  L 354.96 162.41
  A 0.34 0.34 0.0 0 0 355.22 161.98
  L 351.56 149.42
  A 3.51 3.36 -74.8 0 0 350.89 148.19
  L 341.06 136.78
  A 1.02 1.01 -25.6 0 1 341.65 135.12
  L 347.75 133.99
  A 1.35 1.34 79.4 0 0 348.83 132.41
  C 347.61 126.12 346.82 117.70 351.01 112.51
  A 1.21 1.20 -55.1 0 1 352.57 112.23
  C 358.20 115.64 360.96 120.23 363.54 126.15
  A 2.05 2.05 0.0 0 0 366.10 127.25
  L 382.01 121.49
  A 2.79 2.79 0.0 0 0 383.86 119.03
  C 384.29 111.87 384.08 105.64 378.08 100.40
  A 1.64 1.62 58.2 0 0 376.63 100.05
  L 351.40 106.31
  A 5.13 4.83 21.7 0 0 350.21 106.78
  Q 347.78 108.12 345.96 110.86
  A 2.21 2.21 0.0 0 1 343.29 111.68
  L 339.04 109.97
  A 2.59 2.54 -11.9 0 1 338.32 109.51
  C 335.46 106.87 335.83 101.82 336.92 98.38
  A 1.74 1.73 -10.6 0 1 337.52 97.51
  C 340.54 95.20 342.18 95.85 345.56 96.75
  A 2.71 2.65 -43.9 0 0 346.87 96.76
  Q 370.48 90.77 395.70 86.94
  Q 403.66 85.72 410.60 87.63
  Q 416.07 89.14 416.03 94.89
  A 0.83 0.82 -2.7 0 1 415.28 95.71
  C 411.48 96.03 408.53 96.83 404.53 96.88
  Q 393.93 97.00 383.18 98.82
  A 0.29 0.28 -40.2 0 0 383.13 99.37
  Z
  M 394.65 153.32
  L 398.52 154.53
  A 1.11 1.07 40.2 0 0 399.29 154.48
  Q 406.64 151.09 409.81 143.59
  Q 412.85 136.43 414.00 129.38
  A 1.67 1.67 0.0 0 0 411.95 127.49
  L 401.70 130.03
  A 3.15 3.15 0.0 0 0 399.55 131.90
  Q 396.15 140.22 394.70 147.44
  Q 394.01 150.87 394.14 152.69
  A 0.72 0.72 0.0 0 0 394.65 153.32
  Z
  M 368.82 160.94
  L 380.58 157.51
  A 0.63 0.62 -21.0 0 0 380.97 156.65
  C 380.06 154.76 379.76 153.02 380.16 150.75
  Q 381.16 145.15 381.91 139.25
  A 1.53 1.53 0.0 0 0 379.72 137.69
  L 371.61 141.63
  A 2.76 2.68 8.3 0 0 370.85 142.18
  C 366.54 146.58 367.05 153.87 367.99 160.41
  A 0.65 0.65 0.0 0 0 368.82 160.94
  Z"
/>
<path fill="#5b5657" d="
  M 469.63 150.40
  Q 469.71 143.21 469.64 141.36
  Q 469.43 136.56 465.13 135.58
  A 1.32 1.29 -8.2 0 1 464.31 134.98
  Q 461.47 130.36 460.38 126.48
  A 3.05 2.86 -23.5 0 1 461.81 123.16
  C 466.06 120.68 472.34 123.91 475.40 127.00
  C 479.07 130.71 478.04 135.32 475.98 139.78
  Q 474.46 143.05 470.49 150.62
  A 0.46 0.46 0.0 0 1 469.63 150.40
  Z"
/>
<path fill="#5b5657" d="
  M 791.45 185.01
  Q 798.86 185.00 809.65 185.20
  C 813.44 185.27 815.79 178.62 816.66 175.22
  Q 818.82 166.72 819.18 156.94
  A 0.99 0.99 0.0 0 0 817.91 155.95
  Q 805.53 159.56 793.32 164.53
  C 788.52 166.49 782.54 162.92 779.32 159.28
  A 1.14 1.14 0.0 0 1 779.16 158.01
  Q 779.59 157.14 780.57 156.35
  A 1.61 1.55 24.5 0 1 781.57 156.00
  L 787.00 156.00
  A 4.63 4.57 36.4 0 0 788.31 155.81
  L 816.84 147.48
  A 1.05 1.05 0.0 0 0 817.32 145.76
  L 812.41 140.43
  A 0.38 0.37 -33.9 0 1 812.53 139.84
  L 815.22 138.53
  A 1.68 1.66 -18.4 0 0 816.13 136.73
  L 815.96 135.83
  A 0.61 0.61 0.0 0 0 814.90 135.54
  Q 810.20 140.94 800.97 148.46
  Q 799.09 150.00 797.37 148.79
  Q 794.53 146.80 793.27 143.99
  A 2.47 2.46 -41.2 0 1 793.43 141.67
  L 800.50 130.39
  A 0.25 0.25 0.0 0 1 800.89 130.35
  L 804.65 134.44
  A 0.92 0.90 62.2 0 0 805.49 134.71
  Q 807.78 134.24 808.61 133.61
  Q 814.20 129.36 816.49 127.79
  A 2.81 2.76 -67.3 0 1 817.49 127.37
  Q 824.29 125.97 828.49 130.70
  A 0.98 0.97 -58.0 0 1 828.70 131.62
  Q 827.29 136.46 822.82 136.25
  A 1.84 1.84 0.0 0 0 821.13 137.20
  L 821.01 137.41
  A 0.79 0.79 0.0 0 0 821.62 138.57
  Q 826.10 139.05 826.29 143.90
  A 0.93 0.92 -6.2 0 0 827.38 144.77
  L 838.03 142.81
  A 1.33 1.29 -45.8 0 1 838.39 142.80
  C 841.45 143.13 845.29 144.13 845.22 147.84
  Q 845.14 152.14 840.40 153.61
  A 0.95 0.76 -51.4 0 1 840.18 153.66
  L 828.51 154.47
  A 0.67 0.66 84.3 0 0 827.90 155.22
  Q 829.50 166.45 828.78 176.24
  C 828.31 182.66 824.85 192.03 818.75 195.22
  C 816.14 196.59 813.73 195.00 810.81 193.35
  A 5.08 4.96 -21.2 0 0 809.80 192.92
  L 797.14 188.97
  A 2.18 2.12 67.6 0 1 796.70 188.78
  L 791.25 185.80
  A 0.42 0.42 0.0 0 1 791.45 185.01
  Z"
/>
<path fill="#5b5657" d="
  M 763.62 129.08
  A 0.66 0.65 57.6 0 1 764.46 129.27
  Q 766.89 132.55 768.39 134.83
  C 772.63 141.26 759.80 147.75 755.47 149.89
  A 1.58 1.56 52.6 0 1 753.74 149.65
  C 749.22 145.63 751.23 141.78 755.02 137.90
  C 757.05 135.82 760.29 130.85 763.62 129.08
  Z"
/>
<path fill="#5b5657" d="
  M 670.90 141.76
  Q 671.55 141.50 673.25 141.56
  Q 674.43 141.60 688.24 143.29
  C 698.39 144.52 707.30 147.66 715.76 153.75
  C 724.11 159.76 727.68 166.50 722.20 175.98
  C 720.87 178.26 716.84 177.13 715.16 175.83
  Q 714.24 175.13 706.32 169.29
  A 1.49 1.20 69.7 0 0 706.07 169.14
  L 699.51 165.81
  A 2.08 2.06 -82.1 0 1 698.41 164.34
  L 698.12 162.73
  A 1.70 1.70 0.0 0 0 697.39 161.62
  Q 690.04 156.69 678.43 147.70
  C 676.11 145.90 672.62 143.96 670.84 143.01
  A 0.69 0.69 0.0 0 1 670.90 141.76
  Z"
/>
<path fill="#5b5657" d="
  M 390.40 232.27
  L 395.90 232.27
  A 1.14 1.14 0.0 0 1 396.82 232.74
  C 397.39 233.53 397.82 234.75 398.78 235.46
  C 401.44 237.42 407.69 237.77 408.10 233.34
  C 408.77 226.15 387.87 231.45 391.37 215.60
  C 393.81 204.57 413.25 205.65 414.54 217.68
  A 0.75 0.75 0.0 0 1 413.79 218.51
  L 408.27 218.51
  A 1.07 1.06 77.2 0 1 407.31 217.90
  Q 405.18 213.28 399.72 215.53
  A 2.71 2.62 65.9 0 0 398.40 219.18
  Q 398.86 220.12 400.54 220.74
  Q 402.33 221.40 408.27 223.49
  C 417.46 226.74 417.50 239.16 408.41 242.78
  C 400.23 246.04 391.12 242.01 389.91 232.83
  A 0.50 0.49 86.4 0 1 390.40 232.27
  Z"
/>
<path fill="#5b5657" d="
  M 769.02 232.25
  L 774.53 232.25
  A 1.14 1.14 0.0 0 1 775.45 232.72
  C 776.02 233.52 776.45 234.74 777.41 235.45
  C 780.07 237.41 786.33 237.77 786.74 233.33
  C 787.41 226.13 766.49 231.43 770.00 215.56
  C 772.45 204.52 791.91 205.61 793.20 217.66
  A 0.75 0.75 0.0 0 1 792.44 218.49
  L 786.92 218.49
  A 1.07 1.06 77.2 0 1 785.96 217.87
  Q 783.83 213.25 778.36 215.50
  A 2.72 2.63 65.9 0 0 777.04 219.15
  Q 777.50 220.09 779.18 220.71
  Q 780.97 221.38 786.91 223.47
  C 796.11 226.73 796.15 239.16 787.04 242.78
  C 778.85 246.04 769.74 242.00 768.53 232.81
  A 0.50 0.49 86.4 0 1 769.02 232.25
  Z"
/>
<path fill="#5b5657" d="
  M 339.84 214.31
  Q 341.00 214.31 341.92 214.65
  A 1.66 1.60 -3.8 0 1 342.77 215.37
  L 350.38 228.54
  A 0.24 0.24 0.0 0 0 350.83 228.42
  L 350.83 209.66
  A 0.65 0.65 0.0 0 1 351.48 209.01
  L 356.83 209.01
  A 0.68 0.68 0.0 0 1 357.51 209.69
  L 357.51 242.08
  A 0.68 0.68 0.0 0 1 356.83 242.76
  L 350.88 242.76
  A 1.23 1.23 0.0 0 1 349.80 242.12
  L 340.10 224.39
  A 0.23 0.06 3.3 0 0 339.93 224.33
  Q 339.85 224.32 339.83 224.32
  Q 339.82 224.32 339.74 224.33
  A 0.23 0.06 -3.2 0 0 339.57 224.39
  L 329.84 242.10
  A 1.23 1.23 0.0 0 1 328.76 242.74
  L 322.81 242.73
  A 0.68 0.68 0.0 0 1 322.13 242.05
  L 322.18 209.66
  A 0.68 0.68 0.0 0 1 322.86 208.98
  L 328.21 208.99
  A 0.65 0.65 0.0 0 1 328.86 209.64
  L 328.83 228.40
  A 0.24 0.24 0.0 0 0 329.28 228.52
  L 336.91 215.37
  A 1.66 1.60 3.9 0 1 337.77 214.65
  Q 338.69 214.31 339.84 214.31
  Z"
/>
<path fill="#5b5657" d="
  M 386.20 236.71
  L 386.20 242.00
  A 0.69 0.69 0.0 0 1 385.51 242.69
  L 363.88 242.69
  A 0.69 0.69 0.0 0 1 363.19 242.00
  L 363.19 209.65
  A 0.69 0.69 0.0 0 1 363.88 208.96
  L 385.46 208.96
  A 0.69 0.69 0.0 0 1 386.15 209.65
  L 386.15 214.80
  A 0.69 0.69 0.0 0 1 385.46 215.49
  L 371.37 215.49
  A 0.69 0.69 0.0 0 0 370.68 216.18
  L 370.68 221.89
  A 0.69 0.69 0.0 0 0 371.37 222.58
  L 384.21 222.58
  A 0.69 0.69 0.0 0 1 384.90 223.27
  L 384.90 227.91
  A 0.69 0.69 0.0 0 1 384.21 228.60
  L 371.40 228.60
  A 0.69 0.69 0.0 0 0 370.71 229.29
  L 370.71 235.33
  A 0.69 0.69 0.0 0 0 371.40 236.02
  L 385.51 236.02
  A 0.69 0.69 0.0 0 1 386.20 236.71
  Z"
/>
<path fill="#5b5657" d="
  M 431.78 242.72
  Q 429.77 242.71 428.38 242.43
  A 0.73 0.72 5.7 0 1 427.79 241.71
  L 427.97 216.40
  A 0.55 0.55 0.0 0 0 427.42 215.84
  L 419.16 215.79
  A 0.77 0.76 -89.6 0 1 418.40 215.01
  L 418.44 209.70
  A 0.74 0.74 0.0 0 1 419.18 208.96
  Q 423.72 208.95 431.88 208.99
  Q 440.04 209.00 444.58 209.04
  A 0.74 0.74 0.0 0 1 445.31 209.78
  L 445.32 215.09
  A 0.77 0.76 89.9 0 1 444.56 215.86
  L 436.30 215.87
  A 0.55 0.55 0.0 0 0 435.75 216.42
  L 435.77 241.74
  A 0.73 0.72 -5.4 0 1 435.18 242.45
  Q 433.79 242.72 431.78 242.72
  Z"
/>
<path fill="#5b5657" d="
  M 471.76 236.59
  L 471.76 242.16
  A 0.59 0.59 0.0 0 1 471.17 242.75
  L 449.54 242.75
  A 0.59 0.59 0.0 0 1 448.95 242.16
  L 448.95 209.59
  A 0.59 0.59 0.0 0 1 449.54 209.00
  L 456.15 209.00
  A 0.59 0.59 0.0 0 1 456.74 209.59
  L 456.74 235.41
  A 0.59 0.59 0.0 0 0 457.33 236.00
  L 471.17 236.00
  A 0.59 0.59 0.0 0 1 471.76 236.59
  Z"
/>
<path fill="#5b5657" d="
  M 491.17 209.00
  Q 493.07 209.00 494.55 209.08
  A 0.73 0.72 -8.9 0 1 495.19 209.54
  L 508.26 242.06
  A 0.51 0.51 0.0 0 1 507.78 242.76
  L 501.71 242.76
  A 1.00 1.00 0.0 0 1 500.79 242.15
  L 498.57 236.74
  A 1.16 1.16 0.0 0 0 497.63 236.02
  Q 497.41 236.00 491.17 236.00
  Q 484.93 236.00 484.71 236.02
  A 1.16 1.16 0.0 0 0 483.77 236.74
  L 481.55 242.15
  A 1.00 1.00 0.0 0 1 480.63 242.76
  L 474.56 242.76
  A 0.51 0.51 0.0 0 1 474.08 242.06
  L 487.16 209.54
  A 0.73 0.72 9.0 0 1 487.79 209.08
  Q 489.28 209.00 491.17 209.00
  Z
  M 486.62 229.28
  A 0.34 0.34 0.0 0 0 486.93 229.75
  L 495.39 229.75
  A 0.34 0.34 0.0 0 0 495.70 229.28
  L 491.47 218.92
  A 0.34 0.34 0.0 0 0 490.85 218.92
  L 486.62 229.28
  Z"
/>
<path fill="#5b5657" d="
  M 527.12 225.88
  Q 527.12 226.12 527.23 226.24
  Q 534.72 234.33 542.54 242.63
  A 0.08 0.08 0.0 0 1 542.48 242.76
  L 533.44 242.76
  A 0.57 0.56 68.6 0 1 533.02 242.57
  L 520.89 229.40
  A 0.35 0.35 0.0 0 0 520.28 229.64
  L 520.28 242.14
  A 0.61 0.61 0.0 0 1 519.67 242.75
  L 513.25 242.75
  A 0.93 0.92 -0.3 0 1 512.32 241.84
  Q 512.31 240.26 512.31 225.88
  Q 512.32 211.49 512.33 209.92
  A 0.93 0.92 0.3 0 1 513.26 209.01
  L 519.68 209.01
  A 0.61 0.61 0.0 0 1 520.29 209.62
  L 520.28 222.12
  A 0.35 0.35 0.0 0 0 520.89 222.36
  L 533.03 209.20
  A 0.57 0.56 -68.6 0 1 533.45 209.01
  L 542.49 209.01
  A 0.08 0.08 0.0 0 1 542.55 209.14
  Q 534.73 217.44 527.24 225.52
  Q 527.12 225.65 527.12 225.88
  Z"
/>
<path fill="#5b5657" d="
  M 554.01 229.27
  L 554.04 235.30
  A 0.68 0.68 0.0 0 0 554.71 235.98
  L 568.77 235.93
  A 0.69 0.69 0.0 0 1 569.46 236.62
  L 569.45 241.84
  A 0.72 0.72 0.0 0 1 568.74 242.56
  L 547.27 242.65
  A 0.74 0.73 89.7 0 1 546.54 241.91
  L 546.51 209.55
  A 0.56 0.56 0.0 0 1 547.07 208.99
  L 568.71 208.97
  A 0.70 0.70 0.0 0 1 569.41 209.67
  L 569.43 214.81
  A 0.70 0.69 -0.4 0 1 568.73 215.51
  L 554.77 215.48
  A 0.77 0.77 0.0 0 0 554.00 216.24
  L 554.00 221.75
  A 0.80 0.80 0.0 0 0 554.79 222.54
  L 567.31 222.56
  A 0.85 0.85 0.0 0 1 568.16 223.41
  L 568.18 227.77
  A 0.78 0.78 0.0 0 1 567.40 228.55
  L 554.71 228.58
  A 0.70 0.69 -0.4 0 0 554.01 229.27
  Z"
/>
<path fill="#5b5657" d="
  M 606.67 235.98
  C 609.76 235.98 612.95 233.77 613.17 230.49
  Q 613.42 226.59 613.27 209.75
  A 0.75 0.75 0.0 0 1 614.02 208.99
  L 620.30 208.99
  A 0.75 0.74 -90.0 0 1 621.04 209.74
  Q 621.10 227.15 621.04 229.74
  C 620.82 238.04 614.91 243.76 606.68 243.76
  C 598.44 243.77 592.52 238.07 592.30 229.77
  Q 592.23 227.18 592.26 209.77
  A 0.75 0.74 89.9 0 1 593.00 209.01
  L 599.28 209.00
  A 0.75 0.75 0.0 0 1 600.03 209.76
  Q 599.91 226.60 600.17 230.50
  C 600.39 233.78 603.58 235.98 606.67 235.98
  Z"
/>
<path fill="#5b5657" d="
  M 639.02 228.00
  Q 635.98 223.55 634.81 222.08
  A 0.25 0.25 0.0 0 0 634.37 222.24
  L 634.37 242.06
  A 0.71 0.71 0.0 0 1 633.66 242.77
  L 627.64 242.77
  A 0.75 0.75 0.0 0 1 626.89 242.02
  L 626.89 209.71
  A 0.69 0.69 0.0 0 1 627.58 209.02
  L 634.56 209.02
  A 1.19 1.18 72.6 0 1 635.53 209.53
  Q 642.62 220.03 645.18 223.78
  Q 648.20 228.23 649.38 229.70
  A 0.25 0.25 0.0 0 0 649.82 229.54
  L 649.82 209.72
  A 0.71 0.71 0.0 0 1 650.53 209.01
  L 656.55 209.01
  A 0.75 0.75 0.0 0 1 657.30 209.76
  L 657.30 242.07
  A 0.69 0.69 0.0 0 1 656.61 242.76
  L 649.63 242.76
  A 1.19 1.18 72.6 0 1 648.66 242.24
  Q 641.57 231.75 639.02 228.00
  Z"
/>
<path fill="#5b5657" d="
  M 670.87 242.16
  A 0.57 0.57 0.0 0 1 670.30 242.73
  L 663.56 242.73
  A 0.57 0.57 0.0 0 1 662.99 242.16
  L 662.99 209.56
  A 0.57 0.57 0.0 0 1 663.56 208.99
  L 670.30 208.99
  A 0.57 0.57 0.0 0 1 670.87 209.56
  L 670.87 242.16
  Z"
/>
<path fill="#5b5657" d="
  M 691.08 232.62
  Q 691.27 232.62 691.44 232.15
  Q 695.70 220.56 699.98 209.23
  A 0.36 0.35 -79.0 0 1 700.31 209.00
  L 707.27 209.00
  A 0.16 0.16 0.0 0 1 707.42 209.22
  L 695.33 241.56
  A 1.60 1.59 -81.8 0 1 693.96 242.59
  Q 692.53 242.71 691.08 242.71
  Q 689.63 242.71 688.20 242.59
  A 1.60 1.59 81.8 0 1 686.83 241.56
  L 674.73 209.23
  A 0.16 0.16 0.0 0 1 674.88 209.01
  L 681.84 209.00
  A 0.36 0.35 79.0 0 1 682.17 209.23
  Q 686.46 220.56 690.72 232.15
  Q 690.89 232.62 691.08 232.62
  Z"
/>
<path fill="#5b5657" d="
  M 718.87 229.20
  L 718.89 235.21
  A 0.68 0.68 0.0 0 0 719.57 235.88
  L 733.57 235.85
  A 0.69 0.69 0.0 0 1 734.26 236.53
  L 734.25 241.74
  A 0.72 0.72 0.0 0 1 733.53 242.45
  L 712.15 242.52
  A 0.74 0.73 89.7 0 1 711.41 241.78
  L 711.41 209.54
  A 0.56 0.56 0.0 0 1 711.97 208.98
  L 733.53 208.97
  A 0.70 0.70 0.0 0 1 734.23 209.67
  L 734.25 214.80
  A 0.70 0.69 -0.3 0 1 733.55 215.49
  L 719.64 215.45
  A 0.76 0.76 0.0 0 0 718.87 216.21
  L 718.86 221.70
  A 0.79 0.79 0.0 0 0 719.66 222.49
  L 732.13 222.52
  A 0.84 0.84 0.0 0 1 732.98 223.37
  L 732.99 227.71
  A 0.77 0.77 0.0 0 1 732.21 228.49
  L 719.57 228.50
  A 0.70 0.69 -0.3 0 0 718.87 229.20
  Z"
/>
<path fill="#5b5657" d="
  M 766.27 242.52
  A 0.16 0.15 77.7 0 1 766.13 242.74
  L 758.74 242.74
  A 0.37 0.36 -12.9 0 1 758.41 242.54
  L 752.25 229.88
  A 1.09 1.08 76.7 0 0 751.28 229.28
  L 748.10 229.28
  A 0.69 0.69 0.0 0 0 747.41 229.97
  L 747.41 242.02
  A 0.74 0.74 0.0 0 1 746.67 242.76
  L 740.75 242.76
  A 0.83 0.82 0.0 0 1 739.92 241.94
  L 739.92 209.47
  A 0.41 0.40 -0.7 0 1 740.32 209.07
  Q 748.69 208.89 755.43 209.08
  C 766.11 209.38 768.94 222.67 760.11 228.01
  A 0.90 0.89 -28.9 0 0 759.77 229.17
  L 766.27 242.52
  Z
  M 747.38 215.88
  L 747.42 222.40
  A 0.62 0.62 0.0 0 0 748.05 223.01
  L 754.02 222.97
  A 4.63 3.68 -0.4 0 0 758.62 219.26
  L 758.62 218.86
  A 4.63 3.68 -0.4 0 0 753.96 215.21
  L 747.99 215.25
  A 0.62 0.62 0.0 0 0 747.38 215.88
  Z"
/>
<path fill="#5b5657" d="
  M 805.47 242.25
  A 0.49 0.49 0.0 0 1 804.98 242.74
  L 798.18 242.74
  A 0.49 0.49 0.0 0 1 797.69 242.25
  L 797.69 209.47
  A 0.49 0.49 0.0 0 1 798.18 208.98
  L 804.98 208.98
  A 0.49 0.49 0.0 0 1 805.47 209.47
  L 805.47 242.25
  Z"
/>
<path fill="#5b5657" d="
  M 822.71 209.01
  Q 830.87 209.03 835.40 209.07
  A 0.74 0.74 0.0 0 1 836.14 209.81
  L 836.14 215.12
  A 0.77 0.76 -90.0 0 1 835.38 215.89
  L 827.12 215.89
  A 0.55 0.55 0.0 0 0 826.57 216.44
  L 826.57 241.75
  A 0.73 0.72 -5.3 0 1 825.98 242.46
  Q 824.58 242.73 822.57 242.72
  Q 820.57 242.71 819.18 242.43
  A 0.73 0.72 5.8 0 1 818.59 241.72
  L 818.79 216.41
  A 0.55 0.55 0.0 0 0 818.25 215.85
  L 809.99 215.79
  A 0.77 0.76 -89.5 0 1 809.23 215.01
  L 809.28 209.70
  A 0.74 0.74 0.0 0 1 810.02 208.96
  Q 814.55 208.96 822.71 209.01
  Z"
/>
<path fill="#5b5657" d="
  M 854.35 221.88
  Q 854.41 221.88 854.44 221.87
  A 0.25 0.08 -7.2 0 0 854.62 221.79
  L 862.52 209.22
  A 0.42 0.41 15.0 0 1 862.88 209.02
  L 870.16 209.02
  A 0.11 0.10 16.7 0 1 870.25 209.18
  L 858.49 227.96
  A 2.22 2.17 -29.5 0 0 858.15 229.13
  L 858.15 242.13
  A 0.63 0.62 -0.6 0 1 857.53 242.75
  Q 857.33 242.76 854.34 242.76
  Q 851.35 242.75 851.15 242.75
  A 0.63 0.62 0.7 0 1 850.54 242.13
  L 850.55 229.13
  A 2.22 2.17 29.5 0 0 850.21 227.96
  L 838.47 209.16
  A 0.11 0.10 -16.6 0 1 838.56 209.00
  L 845.84 209.01
  A 0.42 0.41 -14.9 0 1 846.20 209.21
  L 854.09 221.79
  A 0.25 0.08 7.2 0 0 854.26 221.87
  Q 854.30 221.88 854.35 221.88
  Z"
/>
<path fill="#5b5657" d="
  M 878.95 298.63
  A 0.62 0.62 0.0 0 1 878.33 299.25
  L 332.29 299.25
  A 0.62 0.62 0.0 0 1 331.67 298.63
  L 331.67 293.37
  A 0.62 0.62 0.0 0 1 332.29 292.75
  L 878.33 292.75
  A 0.62 0.62 0.0 0 1 878.95 293.37
  L 878.95 298.63
  Z"
/>
<path fill="#5b5657" d="
  M 571.04 361.16
  A 0.32 0.32 0.0 0 0 570.41 361.09
  Q 568.07 370.72 564.08 379.69
  A 0.34 0.34 0.0 0 1 563.65 379.87
  L 555.28 376.74
  A 0.30 0.29 -70.6 0 1 555.11 376.38
  L 558.12 366.74
  A 0.19 0.19 0.0 0 0 557.94 366.50
  L 550.26 366.50
  A 0.38 0.37 -81.7 0 0 549.90 366.77
  Q 546.95 377.04 542.15 386.55
  A 0.31 0.31 0.0 0 1 541.67 386.64
  L 533.77 379.58
  A 0.88 0.88 0.0 0 1 533.57 378.53
  C 539.10 367.59 541.94 355.07 543.34 342.81
  A 0.70 0.69 -81.1 0 1 544.16 342.21
  L 554.17 344.05
  A 0.58 0.57 -80.0 0 1 554.63 344.72
  L 552.65 355.49
  A 0.63 0.62 4.4 0 0 553.29 356.23
  L 563.68 355.78
  A 1.40 1.26 48.1 0 1 563.96 355.81
  L 570.25 357.48
  A 0.56 0.56 0.0 0 0 570.95 356.94
  L 570.95 354.26
  A 0.76 0.76 0.0 0 1 571.71 353.50
  L 593.28 353.50
  A 0.58 0.58 0.0 0 0 593.82 352.70
  L 590.80 345.20
  A 0.54 0.54 0.0 0 1 591.15 344.48
  L 601.38 341.50
  A 0.66 0.66 0.0 0 1 602.16 341.84
  L 606.45 350.66
  A 0.78 0.78 0.0 0 1 605.97 351.75
  L 601.51 353.05
  A 0.25 0.24 36.8 0 0 601.58 353.53
  L 624.82 353.53
  A 0.61 0.61 0.0 0 1 625.43 354.14
  L 625.43 370.68
  A 0.63 0.63 0.0 0 1 624.84 371.31
  L 619.29 371.70
  A 0.76 0.76 0.0 0 0 618.58 372.46
  L 618.58 395.64
  A 0.62 0.61 0.0 0 1 617.96 396.25
  L 587.12 396.25
  A 0.32 0.31 -90.0 0 0 586.81 396.57
  L 586.81 401.95
  A 0.30 0.30 0.0 0 0 587.11 402.25
  L 622.04 402.25
  A 0.80 0.80 0.0 0 1 622.84 403.05
  L 622.84 433.95
  A 0.80 0.80 0.0 0 1 622.04 434.75
  L 612.22 434.75
  A 0.76 0.76 0.0 0 1 611.47 434.12
  Q 611.38 433.61 611.53 432.88
  A 0.94 0.94 0.0 0 0 610.61 431.76
  L 587.51 431.76
  A 0.71 0.70 0.0 0 0 586.80 432.46
  L 586.80 434.33
  A 0.67 0.66 -90.0 0 1 586.14 435.00
  L 575.70 435.00
  A 0.37 0.37 0.0 0 1 575.33 434.63
  L 575.33 372.30
  A 0.76 0.76 0.0 0 0 574.77 371.57
  Q 573.85 371.33 571.99 371.53
  A 0.86 0.86 0.0 0 1 571.04 370.68
  L 571.04 361.16
  Z
  M 613.56 363.96
  A 0.46 0.46 0.0 0 0 613.10 363.50
  L 582.76 363.50
  A 0.46 0.46 0.0 0 0 582.30 363.96
  L 582.30 368.54
  A 0.46 0.46 0.0 0 0 582.76 369.00
  L 613.10 369.00
  A 0.46 0.46 0.0 0 0 613.56 368.54
  L 613.56 363.96
  Z
  M 607.70 378.87
  A 0.37 0.37 0.0 0 0 607.33 378.50
  L 587.17 378.50
  A 0.37 0.37 0.0 0 0 586.80 378.87
  L 586.80 386.63
  A 0.37 0.37 0.0 0 0 587.17 387.00
  L 607.33 387.00
  A 0.37 0.37 0.0 0 0 607.70 386.63
  L 607.70 378.87
  Z
  M 611.49 412.42
  A 0.42 0.42 0.0 0 0 611.07 412.00
  L 587.23 412.00
  A 0.42 0.42 0.0 0 0 586.81 412.42
  L 586.81 421.34
  A 0.42 0.42 0.0 0 0 587.23 421.76
  L 611.07 421.76
  A 0.42 0.42 0.0 0 0 611.49 421.34
  L 611.49 412.42
  Z"
/>
<path fill="#5b5657" d="
  M 490.23 415.92
  A 0.28 0.28 0.0 0 1 490.47 415.50
  Q 493.95 415.57 506.00 415.72
  Q 507.49 415.74 509.14 414.67
  C 512.36 412.58 513.27 400.90 513.32 397.02
  A 0.26 0.26 0.0 0 0 513.06 396.76
  L 482.33 396.76
  A 0.49 0.48 -0.0 0 0 481.84 397.24
  L 481.84 433.96
  A 0.80 0.79 0.0 0 1 481.04 434.75
  L 470.33 434.75
  A 0.77 0.77 0.0 0 1 469.56 433.98
  L 469.56 397.53
  A 0.78 0.77 -90.0 0 0 468.79 396.75
  L 437.53 396.75
  A 0.53 0.52 -0.0 0 1 437.00 396.23
  L 437.00 386.27
  A 0.77 0.77 0.0 0 1 437.77 385.50
  L 469.11 385.50
  A 0.46 0.45 90.0 0 0 469.56 385.04
  L 469.56 370.97
  A 0.72 0.72 0.0 0 0 468.84 370.25
  L 442.88 370.25
  A 0.49 0.49 0.0 0 1 442.39 369.76
  L 442.39 359.38
  A 0.63 0.63 0.0 0 1 443.02 358.75
  L 468.95 358.75
  A 0.62 0.61 0.0 0 0 469.57 358.14
  L 469.57 343.09
  A 0.60 0.60 0.0 0 1 470.17 342.49
  L 481.22 342.49
  A 0.62 0.62 0.0 0 1 481.84 343.11
  L 481.84 358.23
  A 0.52 0.52 0.0 0 0 482.36 358.75
  L 508.90 358.75
  A 0.37 0.37 0.0 0 0 509.10 358.07
  L 499.84 352.26
  A 0.53 0.53 0.0 0 1 499.73 351.45
  L 506.13 344.30
  A 0.38 0.38 0.0 0 1 506.61 344.22
  Q 516.93 349.99 526.46 357.14
  A 0.66 0.65 39.3 0 1 526.56 358.10
  L 519.60 365.86
  A 0.52 0.52 0.0 0 1 518.86 365.90
  L 513.06 360.72
  A 0.64 0.63 21.0 0 0 512.00 361.19
  L 512.00 384.88
  A 0.61 0.61 0.0 0 0 512.61 385.49
  L 525.84 385.49
  A 0.47 0.47 0.0 0 1 526.31 385.98
  Q 525.66 401.36 523.05 414.79
  Q 520.87 425.96 509.05 426.54
  Q 503.42 426.82 494.93 426.50
  A 1.12 1.11 86.5 0 1 493.87 425.55
  Q 493.19 420.79 490.23 415.92
  Z
  M 500.0476 370.7541
  A 0.52 0.52 0.0 0 0 499.5267 370.2350
  L 482.3467 370.2650
  A 0.52 0.52 0.0 0 0 481.8276 370.7859
  L 481.8524 384.9859
  A 0.52 0.52 0.0 0 0 482.3733 385.5050
  L 499.5533 385.4750
  A 0.52 0.52 0.0 0 0 500.0724 384.9541
  L 500.0476 370.7541
  Z"
/>
<path fill="#5b5657" d="
  M 424.00 346.61
  L 424.00 434.64
  A 0.61 0.61 0.0 0 1 423.39 435.25
  L 412.68 435.25
  A 0.61 0.61 0.0 0 1 412.07 434.64
  L 412.07 432.37
  A 0.61 0.61 0.0 0 0 411.46 431.76
  L 350.95 431.76
  A 0.61 0.61 0.0 0 0 350.34 432.37
  L 350.34 434.63
  A 0.61 0.61 0.0 0 1 349.73 435.24
  L 339.61 435.24
  A 0.61 0.61 0.0 0 1 339.00 434.63
  L 339.00 346.61
  A 0.61 0.61 0.0 0 1 339.61 346.00
  L 423.39 346.00
  A 0.61 0.61 0.0 0 1 424.00 346.61
  Z
  M 412.08 388.61
  L 412.08 357.23
  A 0.73 0.73 0.0 0 0 411.35 356.50
  L 374.69 356.50
  A 0.20 0.20 0.0 0 0 374.61 356.88
  L 380.94 359.44
  A 0.56 0.56 0.0 0 1 381.20 360.25
  L 379.08 363.62
  A 0.41 0.41 0.0 0 0 379.43 364.25
  L 402.40 364.25
  A 1.03 1.01 -28.2 0 1 402.95 364.41
  L 408.16 367.67
  A 0.36 0.36 0.0 0 1 408.26 368.18
  Q 401.77 377.10 392.62 383.46
  A 0.42 0.42 0.0 0 0 392.72 384.20
  Q 401.72 387.33 411.42 389.16
  A 0.56 0.55 -84.5 0 0 412.08 388.61
  Z
  M 371.38 356.65
  Q 371.26 356.52 371.00 356.52
  Q 367.45 356.48 351.11 356.51
  A 0.76 0.76 0.0 0 0 350.35 357.27
  L 350.35 389.62
  A 0.35 0.35 0.0 0 0 350.80 389.96
  L 370.48 384.21
  A 0.56 0.55 57.7 0 0 370.69 383.26
  L 365.38 378.50
  A 1.41 1.40 -48.0 0 0 363.40 378.61
  L 360.78 381.55
  A 2.04 2.03 -48.1 0 1 357.91 381.71
  L 352.14 376.54
  A 1.31 1.31 0.0 0 1 352.33 374.45
  Q 363.57 367.62 371.41 357.24
  Q 371.64 356.94 371.38 356.65
  Z
  M 390.57 373.72
  A 0.38 0.38 0.0 0 0 390.36 373.02
  L 372.89 372.99
  A 0.38 0.38 0.0 0 0 372.68 373.69
  L 381.41 379.28
  A 0.38 0.38 0.0 0 0 381.82 379.28
  L 390.57 373.72
  Z
  M 358.69 412.29
  L 362.97 405.45
  A 0.85 0.85 0.0 0 1 363.77 405.06
  C 377.03 406.17 390.72 409.48 403.34 413.03
  A 0.60 0.60 0.0 0 1 403.68 413.92
  L 399.51 420.57
  A 0.44 0.44 0.0 0 0 399.88 421.24
  L 411.46 421.24
  A 0.62 0.61 0.0 0 0 412.08 420.63
  L 412.08 391.72
  A 0.42 0.42 0.0 0 0 411.31 391.50
  L 407.19 398.06
  A 0.70 0.70 0.0 0 1 406.44 398.38
  Q 393.88 395.64 382.51 390.01
  A 1.10 1.08 -44.4 0 0 381.54 390.01
  L 374.73 393.32
  A 0.34 0.34 0.0 0 0 374.80 393.96
  Q 386.11 396.50 396.04 400.22
  A 0.72 0.72 0.0 0 1 396.40 401.28
  L 392.55 407.43
  A 0.87 0.87 0.0 0 1 391.48 407.77
  Q 379.23 402.77 368.04 400.06
  A 0.73 0.72 27.8 0 1 367.67 398.87
  L 370.39 395.83
  A 0.28 0.28 0.0 0 0 370.10 395.38
  L 355.48 399.65
  A 0.68 0.67 -22.5 0 1 354.70 399.33
  L 350.88 392.72
  A 0.28 0.28 0.0 0 0 350.35 392.86
  L 350.35 420.37
  A 0.88 0.88 0.0 0 0 351.23 421.25
  L 395.95 421.25
  A 0.24 0.24 0.0 0 0 396.02 420.78
  Q 378.27 415.39 358.99 412.91
  A 0.41 0.41 0.0 0 1 358.69 412.29
  Z"
/>
<path fill="#5b5657" d="
  M 568.00 407.38
  A 0.11 0.11 0.0 0 1 568.16 407.45
  L 570.86 416.69
  A 0.43 0.42 64.9 0 1 570.70 417.15
  L 547.24 434.21
  A 0.34 0.34 0.0 0 1 546.79 434.17
  L 540.41 427.24
  A 0.23 0.23 0.0 0 1 540.43 426.91
  Q 546.76 421.59 546.79 413.48
  Q 546.87 393.50 546.85 379.32
  A 0.83 0.83 0.0 0 1 547.68 378.49
  L 557.08 378.49
  A 1.24 1.24 0.0 0 1 558.32 379.73
  L 558.32 412.50
  A 0.27 0.27 0.0 0 0 558.73 412.73
  L 568.00 407.38
  Z"
/>
<path fill="#5b5657" d="
  M 594.55 465.49
  A 0.31 0.31 0.0 0 1 594.30 465.86
  L 588.33 466.96
  A 0.31 0.30 -12.3 0 1 587.98 466.74
  Q 587.01 463.13 583.03 462.77
  C 580.42 462.54 574.99 463.11 575.34 466.60
  C 575.55 468.71 576.93 469.67 579.06 470.18
  C 586.67 472.03 596.79 473.06 595.39 482.94
  Q 594.79 487.22 591.16 489.43
  C 586.90 492.04 582.31 491.63 577.21 490.97
  C 572.47 490.35 568.88 487.73 567.40 483.24
  A 0.60 0.60 0.0 0 1 567.86 482.46
  L 573.11 481.50
  A 0.83 0.83 0.0 0 1 574.06 482.11
  Q 574.52 483.95 576.78 485.40
  A 2.22 2.16 65.1 0 0 577.67 485.74
  Q 583.66 486.63 586.12 485.64
  C 591.62 483.42 588.07 478.40 584.03 477.46
  C 576.74 475.77 567.56 475.08 568.85 465.41
  C 569.95 457.14 581.65 457.06 587.77 458.52
  Q 593.35 459.85 594.55 465.49
  Z"
/>
<path fill="#5b5657" d="
  M 368.07 491.00
  L 344.68 491.00
  A 0.53 0.53 0.0 0 1 344.15 490.47
  L 344.15 458.78
  A 0.53 0.53 0.0 0 1 344.68 458.25
  L 350.47 458.25
  A 0.53 0.53 0.0 0 1 351.00 458.78
  L 351.00 485.22
  A 0.53 0.53 0.0 0 0 351.53 485.75
  L 368.07 485.75
  A 0.53 0.53 0.0 0 1 368.60 486.28
  L 368.60 490.47
  A 0.53 0.53 0.0 0 1 368.07 491.00
  Z"
/>
<path fill="#5b5657" d="
  M 380.11 490.56
  A 0.41 0.41 0.0 0 1 379.70 490.97
  L 373.64 490.97
  A 0.41 0.41 0.0 0 1 373.23 490.56
  L 373.23 458.64
  A 0.41 0.41 0.0 0 1 373.64 458.23
  L 379.70 458.23
  A 0.41 0.41 0.0 0 1 380.11 458.64
  L 380.11 490.56
  Z"
/>
<path fill="#5b5657" d="
  M 408.92 473.42
  A 0.36 0.36 0.0 0 0 408.99 474.07
  Q 413.91 475.65 414.93 478.62
  C 417.59 486.41 410.80 490.81 403.99 490.93
  Q 394.31 491.09 387.17 490.97
  A 0.68 0.67 0.4 0 1 386.50 490.30
  L 386.50 459.18
  A 0.95 0.94 90.0 0 1 387.44 458.23
  Q 394.21 458.22 404.02 458.44
  C 409.14 458.55 413.40 461.14 413.63 466.34
  Q 413.82 470.61 408.92 473.42
  Z
  M 393.35 463.91
  L 393.33 470.81
  A 0.67 0.67 0.0 0 0 394.00 471.48
  L 401.99 471.49
  A 4.72 4.02 0.1 0 0 406.72 467.48
  L 406.72 467.28
  A 4.72 4.02 0.1 0 0 402.01 463.25
  L 394.02 463.24
  A 0.67 0.67 0.0 0 0 393.35 463.91
  Z
  M 393.34 477.37
  L 393.34 484.97
  A 0.90 0.90 0.0 0 0 394.24 485.87
  L 403.23 485.87
  A 5.39 4.57 -0.0 0 0 408.62 481.30
  L 408.62 481.04
  A 5.39 4.57 0.0 0 0 403.23 476.47
  L 394.24 476.47
  A 0.90 0.90 0.0 0 0 393.34 477.37
  Z"
/>
<path fill="#5b5657" d="
  M 450.73 490.87
  A 0.07 0.07 0.0 0 1 450.67 490.98
  L 443.60 490.99
  A 0.41 0.40 73.5 0 1 443.26 490.80
  L 436.12 479.26
  A 1.62 1.60 -15.7 0 0 434.75 478.50
  L 428.36 478.51
  A 0.71 0.70 -0.0 0 0 427.65 479.21
  L 427.65 490.62
  A 0.38 0.38 0.0 0 1 427.27 491.00
  L 421.12 491.00
  A 0.32 0.32 0.0 0 1 420.80 490.68
  L 420.80 458.89
  A 0.60 0.60 0.0 0 1 421.39 458.29
  Q 432.53 458.09 440.95 458.66
  C 446.36 459.03 449.97 463.89 449.20 469.38
  Q 448.46 474.70 443.00 476.94
  A 0.56 0.56 0.0 0 0 442.73 477.75
  L 450.73 490.87
  Z
  M 427.60 464.21
  L 427.68 472.61
  A 0.68 0.68 0.0 0 0 428.37 473.28
  L 437.12 473.19
  A 5.37 4.72 -0.6 0 0 442.44 468.41
  L 442.44 468.09
  A 5.37 4.72 -0.6 0 0 437.02 463.43
  L 428.27 463.52
  A 0.68 0.68 0.0 0 0 427.60 464.21
  Z"
/>
<path fill="#5b5657" d="
  M 469.09 458.25
  Q 470.99 458.25 472.69 458.46
  A 1.01 1.00 83.6 0 1 473.51 459.12
  L 484.94 490.75
  A 0.18 0.18 0.0 0 1 484.77 490.99
  L 478.51 490.99
  A 0.34 0.33 -9.7 0 1 478.19 490.77
  L 475.54 483.45
  A 1.17 1.17 0.0 0 0 474.57 482.69
  Q 472.89 482.52 469.08 482.51
  Q 465.27 482.51 463.59 482.69
  A 1.17 1.17 0.0 0 0 462.62 483.44
  L 459.96 490.76
  A 0.34 0.33 9.8 0 1 459.64 490.98
  L 453.38 490.98
  A 0.18 0.18 0.0 0 1 453.21 490.74
  L 464.67 459.12
  A 1.01 1.00 -83.5 0 1 465.49 458.46
  Q 467.19 458.25 469.09 458.25
  Z
  M 469.11 477.50
  Q 472.25 477.50 473.35 477.36
  A 0.34 0.33 78.2 0 0 473.63 476.93
  Q 471.39 470.24 469.22 463.96
  Q 469.19 463.88 469.10 463.88
  Q 469.01 463.88 468.98 463.96
  Q 466.82 470.24 464.58 476.94
  A 0.34 0.33 -78.3 0 0 464.86 477.37
  Q 465.97 477.50 469.11 477.50
  Z"
/>
<path fill="#5b5657" d="
  M 519.58 490.87
  A 0.07 0.07 0.0 0 1 519.52 490.98
  L 512.45 490.98
  A 0.41 0.40 73.5 0 1 512.11 490.79
  L 504.98 479.26
  A 1.62 1.60 -15.7 0 0 503.61 478.50
  L 497.22 478.50
  A 0.71 0.70 0.0 0 0 496.51 479.20
  L 496.51 490.61
  A 0.38 0.38 0.0 0 1 496.13 490.99
  L 489.98 490.99
  A 0.32 0.32 0.0 0 1 489.66 490.67
  L 489.66 458.89
  A 0.60 0.60 0.0 0 1 490.25 458.29
  Q 501.39 458.09 509.81 458.66
  C 515.22 459.03 518.82 463.89 518.05 469.38
  Q 517.31 474.70 511.85 476.94
  A 0.56 0.56 0.0 0 0 511.58 477.75
  L 519.58 490.87
  Z
  M 496.45 464.24
  L 496.57 472.62
  A 0.68 0.68 0.0 0 0 497.26 473.29
  L 506.00 473.17
  A 5.40 4.73 -0.8 0 0 511.33 468.37
  L 511.33 468.09
  A 5.40 4.73 -0.8 0 0 505.86 463.43
  L 497.12 463.55
  A 0.68 0.68 0.0 0 0 496.45 464.24
  Z"
/>
<path fill="#5b5657" d="
  M 530.82 490.53
  A 0.44 0.44 0.0 0 1 530.38 490.97
  L 524.38 490.97
  A 0.44 0.44 0.0 0 1 523.94 490.53
  L 523.94 458.67
  A 0.44 0.44 0.0 0 1 524.38 458.23
  L 530.38 458.23
  A 0.44 0.44 0.0 0 1 530.82 458.67
  L 530.82 490.53
  Z"
/>
<path fill="#5b5657" d="
  M 563.43 491.00
  L 537.69 491.00
  A 0.50 0.50 0.0 0 1 537.19 490.50
  L 537.19 458.75
  A 0.50 0.50 0.0 0 1 537.69 458.25
  L 562.49 458.25
  A 0.50 0.50 0.0 0 1 562.99 458.75
  L 562.99 462.99
  A 0.50 0.50 0.0 0 1 562.49 463.49
  L 544.56 463.49
  A 0.50 0.50 0.0 0 0 544.06 463.99
  L 544.06 471.24
  A 0.50 0.50 0.0 0 0 544.56 471.74
  L 561.07 471.74
  A 0.50 0.50 0.0 0 1 561.57 472.24
  L 561.57 476.50
  A 0.50 0.50 0.0 0 1 561.07 477.00
  L 544.57 477.00
  A 0.50 0.50 0.0 0 0 544.07 477.50
  L 544.07 485.25
  A 0.50 0.50 0.0 0 0 544.57 485.75
  L 563.43 485.75
  A 0.50 0.50 0.0 0 1 563.93 486.25
  L 563.93 490.50
  A 0.50 0.50 0.0 0 1 563.43 491.00
  Z"
/>
</svg>
